<?xml version="1.0" encoding="utf-8"?>
<!-- Generator: Adobe Illustrator 23.0.0, SVG Export Plug-In . SVG Version: 6.00 Build 0)  -->
<svg version="1.1" id="Capa_1" xmlns="http://www.w3.org/2000/svg" xmlns:xlink="http://www.w3.org/1999/xlink" x="0px" y="0px"
	 viewBox="0 0 32 32" style="enable-background:new 0 0 32 32;" xml:space="preserve">
<style type="text/css">
	.st0{fill:#141414;}
</style>
<g>
	<path class="st0" d="M25.8,17.3C26,16.9,26,16.5,26,16c0-0.5,0-0.9-0.1-1.3l2.8-2.2c0.3-0.2,0.3-0.6,0.2-0.9L26.1,7
		c-0.2-0.3-0.5-0.4-0.8-0.3L22,8c-0.7-0.5-1.4-1-2.3-1.3l-0.5-3.5c0-0.3-0.3-0.6-0.7-0.6h-5.3c-0.3,0-0.6,0.2-0.7,0.6l-0.5,3.5
		C11.3,7.1,10.5,7.5,9.9,8L6.5,6.7C6.3,6.6,5.8,6.7,5.8,7L3,11.6c-0.2,0.3-0.1,0.7,0.2,0.9L6,14.7c-0.1,0.4-0.1,0.9-0.1,1.3
		c0,0.4,0,0.9,0.1,1.3l-2.8,2.2c-0.3,0.2-0.3,0.6-0.2,0.9L5.8,25c0.2,0.3,0.5,0.4,0.8,0.3L9.8,24c0.7,0.5,1.4,1,2.3,1.3l0.5,3.5
		c0,0.3,0.3,0.6,0.7,0.6h5.3c0.3,0,0.6-0.2,0.7-0.6l0.5-3.5c0.8-0.3,1.6-0.8,2.3-1.3l3.3,1.3c0.3,0.1,0.7,0,0.8-0.3l2.7-4.6
		c0.2-0.3,0.1-0.7-0.2-0.9L25.8,17.3z M15.9,20.7c-2.6,0-4.7-2.1-4.7-4.7s2.1-4.7,4.7-4.7s4.7,2.1,4.7,4.7S18.5,20.7,15.9,20.7z"/>
</g>
</svg>
