<svg version="1.1" id="Capa_1" xmlns="http://www.w3.org/2000/svg" xmlns:xlink="http://www.w3.org/1999/xlink" x="0px" y="0px"
	 viewBox="0 0 32 32" style="enable-background:new 0 0 32 32;" xml:space="preserve">
<style type="text/css">
	.st0{fill:#141414;}
</style>
<g>
	<path class="st0" d="M30,5.5H16v1.8h14L30,5.5z"/>
	<path class="st0" d="M2,7.2h6.1v3.5h6.1V2H8.1v3.5H2C2,6.4,2,6.4,2,7.2z"/>
	<path class="st0" d="M30,24.7H16v1.8h14V24.7z"/>
	<path class="st0" d="M14.3,21.2H8.1v3.5H2v1.8h6.1V30h6.1V21.2z"/>
	<path class="st0" d="M30,15.1h-4.4c0,0.9,0,0.9,0,1.7H30C30,16,30,16,30,15.1z"/>
	<path class="st0" d="M2,16.9h15.8v3.5h6.1v-8.7h-6.1v3.5H2C2,16,2,16,2,16.9z"/>
</g>
</svg>
